<svg width="120" height="115" viewBox="0 0 120 115" fill="none" xmlns="http://www.w3.org/2000/svg">
<path d="M3.46616 34.497C2.94859 30.2694 3.80795 26.6584 5.58527 23.7519C6.87431 21.6283 8.64186 19.906 10.7121 18.6045C12.7531 17.3225 15.0773 16.4515 17.5187 16.0405C21.3858 15.3849 25.5849 15.8546 29.3739 17.5769C30.7216 14.9934 32.6356 12.7916 35.116 11.1475C37.9773 9.25881 41.5612 8.1432 45.8678 8.1432C50.5357 8.1432 54.9497 10.1298 58.182 13.3298C60.5746 15.7078 62.3128 18.761 63.0159 22.1666C65.7991 20.7182 68.3967 20.0528 70.7404 20.0626C72.6642 20.0626 74.422 20.5225 75.9649 21.3543C77.4981 22.1959 78.8067 23.3996 79.8516 24.936C81.6094 27.5 82.625 30.9936 82.7422 35.0939C83.2402 35.8181 83.5332 36.689 83.6113 37.7068C83.6406 38.108 83.6308 38.519 83.6015 38.9496C83.582 39.0964 83.5625 39.2432 83.5234 39.3704L76.463 70.3432C73.8947 72.5255 71.1896 74.424 68.3967 76.1072L79.3926 38.4603C79.4121 38.2842 79.4121 38.1178 79.3926 37.9906C79.3731 37.8046 79.3535 37.6579 79.3047 37.5698C79.2266 37.5111 79.1582 37.4328 79.0899 37.3545C78.9336 37.286 78.6993 37.2371 78.3965 37.2077C78.1426 37.1881 77.8594 37.1881 77.5567 37.1979C77.4688 37.2077 77.3907 37.2175 77.3028 37.2175H6.81572C6.71806 37.2371 6.65947 37.2664 6.63994 37.2958C6.46416 37.6872 6.44463 38.3625 6.52275 39.2041L17.3429 85.7953C19.4132 86.7348 18.3487 86.4412 20.6436 86.5978C25.2138 86.9109 30.0868 85.7855 34.7059 83.476C44.9303 78.3482 53.8364 67.4661 55.4965 53.3938C53.5044 52.425 52.1372 50.3895 52.1372 48.0213C52.1567 44.7429 54.8129 42.0616 58.1039 42.0616C61.3949 42.0616 64.0608 44.7332 64.0608 48.031C64.0608 50.7711 62.2152 53.0806 59.7054 53.7754C57.8988 69.4135 47.9869 81.5384 36.6101 87.2437C31.3173 89.8957 25.6826 91.1776 20.3799 90.8058C18.6222 90.6786 20.1944 91.207 18.5343 90.7177C21.1026 100.396 23.2705 100.357 31.1903 100.21C32.6649 100.191 34.2859 100.151 35.409 100.151H35.8875C35.9558 100.279 36.0144 100.406 36.0828 100.533C36.825 101.923 37.9871 103.205 39.4128 104.379H35.409C33.4657 104.379 32.3036 104.399 31.2489 104.418C19.9991 104.633 17.5089 104.673 13.8761 89.4162V89.4064H13.8664L13.6906 88.6431C12.05 87.6938 10.4973 86.5097 9.06177 85.0809C1.09316 77.1249 -2.91068 61.4966 2.44079 36.0529C2.54821 35.5245 2.85094 35.0743 3.25132 34.7808C3.31968 34.6731 3.38804 34.585 3.46616 34.497ZM12.2062 82.2724L4.57943 49.4696C2.97789 65.9101 6.30791 76.391 12.0207 82.106C12.0891 82.1647 12.1477 82.2234 12.2062 82.2724ZM78.3575 32.9606C78.045 30.6804 77.3712 28.7624 76.3653 27.2945C75.6915 26.3159 74.881 25.5525 73.9435 25.0437C73.0158 24.5348 71.9318 24.2706 70.7209 24.2706C68.3967 24.2706 65.594 25.2492 62.4202 27.4315C62.0784 27.6663 61.6585 27.8033 61.2093 27.8033C60.057 27.7838 59.1293 26.8443 59.1293 25.6895C59.1195 25.6308 59.1195 25.5819 59.1195 25.5232C59.1195 21.9415 57.5961 18.6828 55.2036 16.3145C52.7524 13.8778 49.3931 12.361 45.8678 12.361C42.4206 12.361 39.6081 13.2124 37.4207 14.6509C35.0574 16.2069 33.3778 18.4968 32.3622 21.188C32.3133 21.325 32.2547 21.4522 32.1766 21.5696C31.5712 22.5678 30.2723 22.881 29.286 22.2644C25.8877 20.18 21.8838 19.5439 18.2218 20.18C16.3175 20.503 14.5207 21.1684 12.9582 22.147C11.4348 23.1158 10.1262 24.3782 9.17896 25.9244C8.01687 27.8327 7.40164 30.1911 7.56766 32.9703H77.293C77.6544 32.9606 78.0059 32.9508 78.3575 32.9606ZM87.5663 58.4727C88.3085 57.6899 89.3534 57.2201 90.7401 57.1027L102.683 58.8152C105.281 59.1871 107.81 59.9798 107.986 63.1896C108.044 64.2758 107.791 65.5187 107.625 67.0844L107.537 67.9358C107.195 71.0869 106.316 70.7248 103.738 71.9872C110.183 82.5757 117.615 93.7709 119.909 106.326C120.417 108.91 118.767 110.603 115.496 111.64L109.646 112.736C110.222 105.915 108.425 98.7422 104.607 91.2755C105.652 99.7893 106.697 108.088 105.31 112.991L99.2946 114.126C98.4255 111.376 97.7126 109.252 96.4822 108.372L95.0857 113.637L84.9589 113.137C88.6014 107.559 90.8377 101.541 91.4334 94.9942C88.2596 102.06 84.7343 107.295 80.7793 110.427C78.9239 112.335 77.3028 112.726 75.9161 111.503C74.9298 110.632 75.086 110.094 75.2911 108.822C75.5548 107.178 76.2091 105.485 77.1173 103.792C75.0763 106.092 73.7872 106.649 72.6349 107.873C69.383 111.366 63.7581 110.828 62.8597 105.984C62.2835 102.882 64.344 101.884 66.4338 99.6915L70.0666 95.8847C65.9944 98.4389 61.9124 100.885 57.8012 102.422C53.0747 104.193 53.0552 104.007 48.7193 101.756C42.8796 98.7325 38.5339 95.278 46.6588 93.1936C61.6195 88.2614 76.2091 82.4583 87.703 69.3939C86.4921 68.66 85.828 67.7107 85.623 66.5951C85.3007 64.9315 86.3944 59.7058 87.5663 58.4727ZM103.777 4.61044L94.9099 49.6262C94.0896 57.1614 102.839 57.8464 104.226 50.4384L112.898 5.35418C112.693 -0.928447 105.593 -2.30828 103.777 4.61044Z" fill="#345C72"/>
</svg>
