<svg width="120" height="108" viewBox="0 0 120 108" fill="none" xmlns="http://www.w3.org/2000/svg">
<path d="M32.3564 104.092H29.4275V107.192H118.584C118.77 107.193 118.954 107.157 119.125 107.087C119.297 107.017 119.453 106.913 119.585 106.781C119.716 106.65 119.821 106.494 119.892 106.322C119.963 106.15 120 105.966 120 105.779V32.2193C119.999 31.6708 119.781 31.1452 119.395 30.7579C119.007 30.3663 118.48 30.1443 117.93 30.14H87.274V2.49128C87.2745 1.88354 87.052 1.29693 86.6492 0.843538L86.5418 0.725842C86.3114 0.49387 86.0373 0.310242 85.7356 0.185641C85.4339 0.0610397 85.1106 -0.00204718 84.7844 5.06508e-05H31.7413C31.4153 -0.000967281 31.0923 0.062613 30.7907 0.187153C30.4892 0.311693 30.215 0.494748 29.984 0.725842C29.5757 1.13942 29.3266 1.68503 29.281 2.2657V42.8904L32.3662 47.4806V3.10919H84.1791V104.132H87.2642V33.1315H117.003V104.092H107.884V89.2528C107.885 89.1129 107.859 88.9741 107.807 88.8444C107.754 88.7148 107.677 88.5968 107.579 88.4974C107.481 88.398 107.364 88.3191 107.235 88.2653C107.107 88.2114 106.969 88.1837 106.83 88.1837H94.8697C94.5875 88.1837 94.3168 88.2964 94.1172 88.4969C93.9177 88.6973 93.8055 88.9693 93.8055 89.2528V104.112H71.3503V83.0836C71.3503 82.8968 71.3137 82.7119 71.2426 82.5393C71.1714 82.3668 71.0672 82.21 70.9357 82.078C70.8043 81.9459 70.6482 81.8411 70.4764 81.7697C70.3047 81.6982 70.1206 81.6614 69.9347 81.6614H46.5813C46.3959 81.6614 46.2122 81.6983 46.041 81.7699C45.8698 81.8414 45.7144 81.9464 45.5837 82.0785C45.453 82.2107 45.3497 82.3676 45.2796 82.5401C45.2095 82.7126 45.1741 82.8973 45.1754 83.0836V85.3296L45.5855 85.8396C45.6698 85.9394 45.748 86.0442 45.8198 86.1535C46.4599 87.0705 46.8533 88.1381 46.9621 89.2528C47.09 90.3301 46.9766 91.4226 46.6301 92.4502C46.3248 93.3624 45.8288 94.1984 45.1754 94.9022V104.112H29.3884V96.7952H32.3174V104.092H32.3564ZM2.46174 92.0873C-0.00833367 92.3325 -0.545305 90.2336 0.518875 88.4976L10.0672 76.6397L9.79384 76.3455H4.67797C2.83274 76.6397 2.13955 74.5114 3.27208 73.0206L13.5526 60.2702H10.5456C8.66132 60.2702 8.20246 58.4851 9.40332 56.7589L18.7857 42.4589C19.4203 41.6546 20.1037 40.4973 21.2167 40.4973C22.193 40.4973 22.7593 41.4781 23.3255 42.1744L33.2839 56.9747C33.5471 57.284 33.7127 57.6651 33.7595 58.0693C33.8064 58.4735 33.7325 58.8825 33.5472 59.2444C33.3618 59.6062 33.0735 59.9044 32.7189 60.1011C32.3643 60.2977 31.9594 60.3839 31.5559 60.3486H28.871L39.0442 73.0206C39.3147 73.2776 39.5141 73.601 39.6227 73.9588C39.7313 74.3167 39.7455 74.6967 39.6637 75.0617C39.582 75.4267 39.4072 75.7641 39.1566 76.0407C38.9059 76.3174 38.5879 76.5238 38.2338 76.6397H32.3369L41.2311 87.7031L42.2074 88.9193C42.4028 89.1927 42.5276 89.5105 42.5704 89.8442C42.6132 90.178 42.5727 90.5172 42.4527 90.8314C42.3326 91.1455 42.1367 91.4248 41.8826 91.644C41.6285 91.8632 41.3241 92.0156 40.9968 92.0873H24.9267V107.407H17.3993V92.0873H2.46174ZM105.765 104.092H95.9241V90.2924H105.765V104.092ZM103.481 39.232H111.135C111.194 39.232 111.252 39.3203 111.252 39.4282V44.4303C111.252 44.5185 111.194 44.6166 111.135 44.6166H103.481C103.422 44.6166 103.364 44.5283 103.364 44.4303V39.4478C103.364 39.3399 103.422 39.2516 103.481 39.2516V39.232ZM103.481 73.7856H111.135C111.194 73.7856 111.252 73.8739 111.252 73.9621V78.9446C111.252 79.0427 111.194 79.131 111.135 79.131H103.481C103.422 79.131 103.364 79.0525 103.364 78.9446V73.9818C103.364 73.8935 103.422 73.8052 103.481 73.8052V73.7856ZM90.5837 73.7856H98.2282C98.2966 73.7856 98.3454 73.8739 98.3454 73.9621V78.9446C98.3454 79.0427 98.3454 79.131 98.2282 79.131H90.5739C90.5056 79.131 90.4568 79.0525 90.4568 78.9446V73.9818C90.4568 73.8935 90.4568 73.8052 90.5739 73.8052L90.5837 73.7856ZM103.481 62.2906H111.135C111.194 62.2906 111.252 62.3691 111.252 62.477V67.4594C111.252 67.5575 111.194 67.6458 111.135 67.6458H103.481C103.422 67.6458 103.364 67.5673 103.364 67.4594V62.477C103.364 62.3593 103.422 62.2906 103.481 62.2906ZM103.481 50.776H111.135C111.194 50.776 111.252 50.8545 111.252 50.9624V55.9056C111.252 55.9939 111.194 56.092 111.135 56.092H103.481C103.422 56.092 103.364 56.0037 103.364 55.9056V51.0016C103.364 50.8937 103.422 50.8153 103.481 50.8153V50.776ZM90.5739 39.232H98.2185C98.2868 39.232 98.3356 39.3203 98.3356 39.4282V44.4303C98.3356 44.5185 98.3356 44.6166 98.2185 44.6166H90.5739C90.5056 44.6166 90.4568 44.5283 90.4568 44.4303V39.4478C90.4568 39.3399 90.4568 39.2516 90.5739 39.2516V39.232ZM90.5739 62.271H98.2185C98.2868 62.271 98.3356 62.3495 98.3356 62.4574V67.4398C98.3356 67.5379 98.3356 67.6262 98.2185 67.6262H90.5739C90.5056 67.6262 90.4568 67.5477 90.4568 67.4398V62.477C90.4568 62.3593 90.4568 62.2906 90.5739 62.2906V62.271ZM90.5739 50.7564H98.2185C98.2868 50.7564 98.3356 50.8349 98.3356 50.9428V55.9056C98.3356 55.9939 98.3356 56.092 98.2185 56.092H90.5739C90.5056 56.092 90.4568 56.0037 90.4568 55.9056V51.0016C90.4568 50.8937 90.4568 50.8153 90.5739 50.8153V50.7564ZM68.5288 104.092H48.0262V84.4763H68.5288V104.092ZM39.8057 10.9163H48.1239C48.1546 10.9163 48.1851 10.9224 48.2135 10.9343C48.242 10.9461 48.2678 10.9634 48.2896 10.9853C48.3113 11.0072 48.3286 11.0331 48.3404 11.0617C48.3521 11.0902 48.3582 11.1208 48.3582 11.1517V19.518C48.3582 19.5489 48.3521 19.5795 48.3404 19.608C48.3286 19.6366 48.3113 19.6625 48.2896 19.6844C48.2678 19.7063 48.242 19.7236 48.2135 19.7354C48.1851 19.7473 48.1546 19.7534 48.1239 19.7534H39.8057C39.7426 19.7534 39.682 19.7289 39.6365 19.685C39.591 19.6412 39.5641 19.5813 39.5616 19.518V11.1615C39.5641 11.0982 39.591 11.0384 39.6365 10.9945C39.682 10.9506 39.7426 10.9261 39.8057 10.9262V10.9163ZM68.4019 10.9163H76.7298C76.792 10.9163 76.8516 10.9411 76.8955 10.9853C76.9395 11.0294 76.9641 11.0893 76.9641 11.1517V19.518C76.9641 19.5804 76.9395 19.6403 76.8955 19.6844C76.8516 19.7286 76.792 19.7534 76.7298 19.7534H68.4019C68.3397 19.7534 68.2801 19.7286 68.2362 19.6844C68.1923 19.6403 68.1676 19.5804 68.1676 19.518V11.1615C68.1676 11.0991 68.1923 11.0392 68.2362 10.9951C68.2801 10.951 68.3397 10.9262 68.4019 10.9262V10.9163ZM54.0989 10.9163H62.4757C62.5378 10.9163 62.5974 10.9411 62.6414 10.9853C62.6853 11.0294 62.71 11.0893 62.71 11.1517V19.518C62.71 19.5804 62.6853 19.6403 62.6414 19.6844C62.5974 19.7286 62.5378 19.7534 62.4757 19.7534H54.0989C54.0368 19.7534 53.9772 19.7286 53.9332 19.6844C53.8893 19.6403 53.8646 19.5804 53.8646 19.518V11.1615C53.8646 11.0991 53.8893 11.0392 53.9332 10.9951C53.9772 10.951 54.0368 10.9262 54.0989 10.9262V10.9163ZM39.8057 29.0317H48.1239C48.1546 29.0317 48.1851 29.0378 48.2135 29.0496C48.242 29.0615 48.2678 29.0788 48.2896 29.1007C48.3113 29.1225 48.3286 29.1485 48.3404 29.177C48.3521 29.2056 48.3582 29.2362 48.3582 29.2671V37.6333C48.3582 37.6642 48.3521 37.6949 48.3404 37.7234C48.3286 37.752 48.3113 37.7779 48.2896 37.7998C48.2678 37.8216 48.242 37.839 48.2135 37.8508C48.1851 37.8626 48.1546 37.8687 48.1239 37.8687H39.8057C39.7426 37.8688 39.682 37.8443 39.6365 37.8004C39.591 37.7565 39.5641 37.6966 39.5616 37.6333V29.2671C39.5641 29.2038 39.591 29.1439 39.6365 29.1C39.682 29.0561 39.7426 29.0317 39.8057 29.0317ZM68.4019 29.0317H76.7298C76.792 29.0317 76.8516 29.0565 76.8955 29.1007C76.9395 29.1448 76.9641 29.2047 76.9641 29.2671V37.6333C76.9641 37.6958 76.9395 37.7556 76.8955 37.7998C76.8516 37.8439 76.792 37.8687 76.7298 37.8687H68.4019C68.3397 37.8687 68.2801 37.8439 68.2362 37.7998C68.1923 37.7556 68.1676 37.6958 68.1676 37.6333V29.2671C68.1676 29.2047 68.1923 29.1448 68.2362 29.1007C68.2801 29.0565 68.3397 29.0317 68.4019 29.0317ZM54.0989 29.0317H62.4757C62.5378 29.0317 62.5974 29.0565 62.6414 29.1007C62.6853 29.1448 62.71 29.2047 62.71 29.2671V37.6333C62.71 37.6958 62.6853 37.7556 62.6414 37.7998C62.5974 37.8439 62.5378 37.8687 62.4757 37.8687H54.0989C54.0368 37.8687 53.9772 37.8439 53.9332 37.7998C53.8893 37.7556 53.8646 37.6958 53.8646 37.6333V29.2671C53.8646 29.2047 53.8893 29.1448 53.9332 29.1007C53.9772 29.0565 54.0368 29.0317 54.0989 29.0317ZM39.8057 65.2526H48.1239C48.186 65.2526 48.2456 65.2774 48.2896 65.3216C48.3335 65.3657 48.3582 65.4256 48.3582 65.488V73.8444C48.3582 73.9078 48.3339 73.9687 48.2902 74.0145C48.2465 74.0602 48.1869 74.0871 48.1239 74.0896H44.16C44.1409 73.7996 44.1017 73.5112 44.0429 73.2265C43.8012 71.9784 43.2277 70.8193 42.3832 69.8722L39.5616 66.3708V65.488C39.5641 65.4247 39.591 65.3648 39.6365 65.321C39.682 65.2771 39.7426 65.2526 39.8057 65.2526ZM68.4019 65.2526H76.7298C76.792 65.2526 76.8516 65.2774 76.8955 65.3216C76.9395 65.3657 76.9641 65.4256 76.9641 65.488V73.8444C76.9642 73.9078 76.9398 73.9687 76.8961 74.0145C76.8525 74.0602 76.7929 74.0871 76.7298 74.0896H68.4019C68.3389 74.0871 68.2793 74.0602 68.2356 74.0145C68.1919 73.9687 68.1675 73.9078 68.1676 73.8444V65.488C68.1676 65.4256 68.1923 65.3657 68.2362 65.3216C68.2801 65.2774 68.3397 65.2526 68.4019 65.2526ZM54.0989 65.2526H62.4757C62.5378 65.2526 62.5974 65.2774 62.6414 65.3216C62.6853 65.3657 62.71 65.4256 62.71 65.488V73.8444C62.71 73.9078 62.6857 73.9687 62.642 74.0145C62.5983 74.0602 62.5387 74.0871 62.4757 74.0896H54.0989C54.0359 74.0871 53.9763 74.0602 53.9326 74.0145C53.8889 73.9687 53.8645 73.9078 53.8646 73.8444V65.488C53.8646 65.4256 53.8893 65.3657 53.9332 65.3216C53.9772 65.2774 54.0368 65.2526 54.0989 65.2526ZM39.8057 47.1471H48.1239C48.1546 47.1471 48.1851 47.1532 48.2135 47.165C48.242 47.1768 48.2678 47.1942 48.2896 47.216C48.3113 47.2379 48.3286 47.2638 48.3404 47.2924C48.3521 47.321 48.3582 47.3516 48.3582 47.3825V55.7389C48.3582 55.7698 48.3521 55.8004 48.3404 55.829C48.3286 55.8575 48.3113 55.8835 48.2896 55.9053C48.2678 55.9272 48.242 55.9445 48.2135 55.9564C48.1851 55.9682 48.1546 55.9743 48.1239 55.9743H39.8057C39.7426 55.9743 39.682 55.9498 39.6365 55.906C39.591 55.8621 39.5641 55.8022 39.5616 55.7389V47.3825C39.5641 47.3192 39.591 47.2593 39.6365 47.2154C39.682 47.1715 39.7426 47.147 39.8057 47.1471ZM68.4019 47.1471H76.7298C76.792 47.1471 76.8516 47.1719 76.8955 47.216C76.9395 47.2602 76.9641 47.32 76.9641 47.3825V55.7389C76.9641 55.8013 76.9395 55.8612 76.8955 55.9053C76.8516 55.9495 76.792 55.9743 76.7298 55.9743H68.4019C68.3397 55.9743 68.2801 55.9495 68.2362 55.9053C68.1923 55.8612 68.1676 55.8013 68.1676 55.7389V47.3825C68.1676 47.32 68.1923 47.2602 68.2362 47.216C68.2801 47.1719 68.3397 47.1471 68.4019 47.1471ZM54.0989 47.1471H62.4757C62.5378 47.1471 62.5974 47.1719 62.6414 47.216C62.6853 47.2602 62.71 47.32 62.71 47.3825V55.7389C62.71 55.8013 62.6853 55.8612 62.6414 55.9053C62.5974 55.9495 62.5378 55.9743 62.4757 55.9743H54.0989C54.0368 55.9743 53.9772 55.9495 53.9332 55.9053C53.8893 55.8612 53.8646 55.8013 53.8646 55.7389V47.3825C53.8646 47.32 53.8893 47.2602 53.9332 47.216C53.9772 47.1719 54.0368 47.1471 54.0989 47.1471Z" fill="#345C72"/>
</svg>
