<svg width="144" height="161" viewBox="0 0 144 161" fill="none" xmlns="http://www.w3.org/2000/svg">
<g clip-path="url(#clip0_46_35)">
<path fill-rule="evenodd" clip-rule="evenodd" d="M66.6692 21H66.3308C66.3308 18.24 65.2986 15.8269 63.2358 13.7642C61.1731 11.7014 58.7617 10.6692 56 10.6692V10.3308C58.7617 10.3308 61.1731 9.29858 63.2358 7.23071C65.2986 5.16284 66.3308 2.75146 66.3308 0H66.6692C66.6692 2.76001 67.7014 5.1731 69.7642 7.23584C71.8269 9.29858 74.2383 10.3308 77 10.3308V10.6692C74.24 10.6692 71.8269 11.7014 69.7642 13.7642C67.7014 15.8269 66.6692 18.2383 66.6692 21Z" fill="#345C72"/>
</g>
<g clip-path="url(#clip1_46_35)">
<path fill-rule="evenodd" clip-rule="evenodd" d="M35.8303 41H35.1697C35.1697 35.6114 33.1544 30.9001 29.1271 26.8729C25.0999 22.8456 20.3919 20.8303 15 20.8303V20.1697C20.3919 20.1697 25.0999 18.1544 29.1271 14.1171C33.1544 10.0798 35.1697 5.37191 35.1697 0H35.8303C35.8303 5.38859 37.8456 10.0999 41.8729 14.1271C45.9001 18.1544 50.6081 20.1697 56 20.1697V20.8303C50.6114 20.8303 45.9001 22.8456 41.8729 26.8729C37.8456 30.9001 35.8303 35.6081 35.8303 41Z" fill="#345C72"/>
</g>
<path fill-rule="evenodd" clip-rule="evenodd" d="M129.836 152.425V157.675C129.836 159.035 128.734 160.124 127.386 160.124H15.9406C14.5812 160.124 13.4913 159.023 13.4913 157.675V152.425V124.675V95.0264C10.7491 96.0811 8.18271 96.1046 6.04989 95.378C4.38582 94.8155 2.97957 93.8077 1.94831 92.5069C0.917057 91.2061 0.260804 89.6241 0.0615842 87.878C-0.243105 85.1709 0.565493 82.1123 2.8741 79.2412C2.99128 79.1006 3.12019 78.96 3.27254 78.8428L70.1283 26.6472C70.9955 25.8503 72.3314 25.7683 73.2924 26.5183L140.312 78.6201C140.418 78.7021 140.511 78.7842 140.605 78.8896C143.711 82.2295 144.484 85.9326 143.734 89.0616C143.359 90.6084 142.621 92.003 141.601 93.1397C140.582 94.2881 139.281 95.1788 137.804 95.7061C135.461 96.5499 132.672 96.5264 129.847 95.1905V124.675V152.425H129.836ZM6.51864 82.5225C5.21786 84.2217 4.76082 85.9209 4.91317 87.3506C5.00692 88.1709 5.29989 88.8975 5.76864 89.4834C6.22567 90.0577 6.84677 90.4913 7.59677 90.7491C8.87412 91.1827 10.5265 91.0655 12.4132 90.1748L70.7611 45.784C71.6635 45.0926 72.8939 45.1278 73.7494 45.7957L130.433 89.8584C130.457 89.8819 130.48 89.9053 130.515 89.917C132.59 91.417 134.582 91.6514 136.129 91.1006C136.843 90.8428 137.465 90.4209 137.945 89.8702C138.437 89.3194 138.789 88.6631 138.965 87.9248C139.351 86.3076 138.883 84.3154 137.148 82.3701L71.7924 31.5574L6.51864 82.5225ZM34.6789 114.468H65.9681C67.1869 114.468 68.183 115.441 68.183 116.636V141.116C68.183 142.312 67.1869 143.284 65.9681 143.284H34.6789C33.4602 143.284 32.4641 142.312 32.4641 141.116V116.636C32.4758 115.441 33.4602 114.468 34.6789 114.468ZM79.3627 112.312H108.742C110.054 112.312 111.121 113.413 111.121 114.773V155.226H124.925V92.296C124.925 92.1319 124.937 91.9795 124.972 91.8272L72.226 50.8231L18.3078 91.8506C18.3664 92.0499 18.3898 92.2608 18.3898 92.4835V155.214H76.9838V114.761C76.9838 113.402 78.0502 112.312 79.3627 112.312ZM106.363 117.222H81.7533V155.167H106.363V117.222ZM63.7533 131.038H52.1399V138.948H63.7533V131.038ZM47.804 131.038H36.8938V138.948H47.804V131.038ZM36.8938 126.702H47.804V118.804H36.8938V126.702ZM52.1399 126.702H63.7533V118.804H52.1399V126.702ZM71.3353 68.5771C75.4955 68.5771 78.8705 71.9521 78.8705 76.1123C78.8705 80.2725 75.4955 83.6475 71.3353 83.6475C67.1752 83.6475 63.8001 80.2725 63.8001 76.1123C63.8001 71.9404 67.1752 68.5771 71.3353 68.5771Z" fill="#345C72"/>
<defs>
<clipPath id="clip0_46_35">
<rect width="21" height="21" fill="white" transform="translate(56)"/>
</clipPath>
<clipPath id="clip1_46_35">
<rect width="41" height="41" fill="white" transform="translate(15)"/>
</clipPath>
</defs>
</svg>
