<svg width="136" height="23" viewBox="0 0 136 23" fill="none" xmlns="http://www.w3.org/2000/svg">
<path d="M5.01077 22.5945C4.47509 22.8848 3.86724 22.3761 3.97549 21.7266L5.12734 14.7922L0.238216 9.8721C-0.218361 9.41176 0.0189479 8.57024 0.630956 8.47935L7.42827 7.45897L10.4592 1.11534C10.7326 0.543583 11.4722 0.543583 11.7456 1.11534L14.7765 7.45897L21.5738 8.47935C22.1859 8.57024 22.4232 9.41176 21.9652 9.8721L17.0775 14.7922L18.2293 21.7266C18.3376 22.3761 17.7297 22.8848 17.194 22.5945L11.1003 19.2871L5.01077 22.5945Z" fill="#DABF81"/>
<path d="M33.4583 22.5953C32.9226 22.8855 32.3148 22.3768 32.423 21.7274L33.5749 14.7929L28.6857 9.87283C28.2291 9.41249 28.4665 8.57097 29.0785 8.48008L35.8758 7.4597L38.9067 1.11608C39.1801 0.544315 39.9198 0.544315 40.1931 1.11608L43.224 7.4597L50.0214 8.48008C50.6334 8.57097 50.8707 9.41249 50.4127 9.87283L45.525 14.7929L46.6768 21.7274C46.7851 22.3768 46.1772 22.8855 45.6415 22.5953L39.5478 19.2878L33.4583 22.5953Z" fill="#DABF81"/>
<path d="M61.9077 22.5953C61.3721 22.8855 60.7642 22.3768 60.8725 21.7274L62.0243 14.7929L57.1352 9.87283C56.6786 9.41249 56.9159 8.57097 57.5279 8.48008L64.3252 7.4597L67.3561 1.11608C67.6295 0.544315 68.3692 0.544315 68.6426 1.11608L71.6735 7.4597L78.4708 8.48008C79.0828 8.57097 79.3201 9.41249 78.8622 9.87283L73.9744 14.7929L75.1263 21.7274C75.2345 22.3768 74.6267 22.8855 74.091 22.5953L67.9973 19.2878L61.9077 22.5953Z" fill="#DABF81"/>
<path d="M90.357 22.5953C89.8213 22.8855 89.2134 22.3768 89.3217 21.7274L90.4735 14.7929L85.5844 9.87283C85.1278 9.41249 85.3651 8.57097 85.9771 8.48008L92.7745 7.4597L95.8054 1.11608C96.0788 0.544315 96.8184 0.544315 97.0918 1.11608L100.123 7.4597L106.92 8.48008C107.532 8.57097 107.769 9.41249 107.311 9.87283L102.424 14.7929L103.576 21.7274C103.684 22.3768 103.076 22.8855 102.54 22.5953L96.4465 19.2878L90.357 22.5953Z" fill="#DABF81"/>
<path d="M118.806 21.908C118.271 22.1983 117.663 21.6896 117.771 21.0401L118.923 14.1057L114.034 9.18558C113.577 8.72523 113.815 7.88372 114.427 7.79282L121.224 6.77245L124.255 0.428821C124.528 -0.14294 125.268 -0.14294 125.541 0.428821L128.572 6.77245L135.37 7.79282C135.982 7.88372 136.219 8.72523 135.761 9.18558L130.873 14.1057L132.025 21.0401C132.133 21.6896 131.525 22.1983 130.99 21.908L124.896 18.6006L118.806 21.908Z" fill="#DABF81"/>
</svg>
